# xmcd
#
# Track frame offsets:
#	150
#	14987
#	26927
#	37795
#	48355
#	59855
#	70420
#	81740
#	104079
#	116760
#	138825
#	151855
#	163955
#	175490
#	188320
#	205870
#	221957
#	235292
#	252592
#	267742
#
# Disc length: 3736
#
# Revision: 2
# Processed by: cddbd v1.5.1PL0 Copyright (c) Steve Scherf et al.
# Submitted via: audiograbber 1.83.01
# Normalized: r1:DSETVAR1
#
DISCID=420e9614
DTITLE=Various Artist - Groove Masters Vol 1
DYEAR=2000
DGENRE=Funk
TTITLE0=Isaac Hayes - Theme From Shaft
TTITLE1=Sam and Dave - Soul Man
TTITLE2=Otis Redding - Pain In My Heart
TTITLE3=The Bar-Kays - Soul Finger
TTITLE4=Rufus Thomas - The Memphis Train
TTITLE5=Carla Thomas - Gee Whiz (Look At His Eyes)
TTITLE6=Eddie Floyd - Bring It On Home To Me
TTITLE7=Booker T. and The Mg's - Time Is Tight
TTITLE8=Johnnie Taylor - Who's Making Love
TTITLE9=The Staple Singers - Respect Yourself
TTITLE10=William Bell - A Tribute To A King
TTITLE11=Judy Clay and William Bell - Private Number
TTITLE12=Jean Knight - Mr. Big Stuff
TTITLE13=The Emotions - So I Can Love You
TTITLE14=Shirley Brown - Woman To Woman
TTITLE15=The Dramatics - Whatcha See Is Whatcha Get
TTITLE16=Mable John - Your Good Thing (Is About To End)
TTITLE17=Mel and Tim - Starting All Over Again
TTITLE18=Frederick Knight - I've Benn Lonely For So Long
TTITLE19=Albert King - Born Under A Bad Sign
EXTD=
EXTT0=
EXTT1=
EXTT2=
EXTT3=
EXTT4=
EXTT5=
EXTT6=
EXTT7=
EXTT8=
EXTT9=
EXTT10=
EXTT11=
EXTT12=
EXTT13=
EXTT14=
EXTT15=
EXTT16=
EXTT17=
EXTT18=
EXTT19=
PLAYORDER=
